<svg xmlns="http://www.w3.org/2000/svg" fill="none" viewBox="0 0 24 24"><desc>Books Stack Streamline Icon: 书影音 media library</desc><path fill="#c4a6ff" d="M5 7.5h14a1 1 0 0 1 1 1v2a1 1 0 0 1-1 1H5a1 1 0 0 1-1-1v-2a1 1 0 0 1 1-1Z"/><path fill="#b08ee8" d="M19 10.5H5a1 1 0 0 1-1-1v1a1 1 0 0 0 1 1h14a1 1 0 0 0 1-1v-1a1 1 0 0 1-1 1Z"/><path stroke="#191919" stroke-linecap="round" stroke-linejoin="round" d="M5 7.5h14a1 1 0 0 1 1 1v2a1 1 0 0 1-1 1H5a1 1 0 0 1-1-1v-2a1 1 0 0 1 1-1Z"/><path stroke="#191919" stroke-linecap="round" d="M7.5 9.5h6"/><path fill="#ffb3c1" d="M4 11.5h16a1 1 0 0 1 1 1v2a1 1 0 0 1-1 1H4a1 1 0 0 1-1-1v-2a1 1 0 0 1 1-1Z"/><path fill="#f09ab0" d="M20 14.5H4a1 1 0 0 1-1-1v1a1 1 0 0 0 1 1h16a1 1 0 0 0 1-1v-1a1 1 0 0 1-1 1Z"/><path stroke="#191919" stroke-linecap="round" stroke-linejoin="round" d="M4 11.5h16a1 1 0 0 1 1 1v2a1 1 0 0 1-1 1H4a1 1 0 0 1-1-1v-2a1 1 0 0 1 1-1Z"/><path stroke="#191919" stroke-linecap="round" d="M7 13.5h6"/><path fill="#a8d8f0" d="M3 15.5h18a1 1 0 0 1 1 1v2a1 1 0 0 1-1 1H3a1 1 0 0 1-1-1v-2a1 1 0 0 1 1-1Z"/><path fill="#8ec6e8" d="M21 18.5H3a1 1 0 0 1-1-1v1a1 1 0 0 0 1 1h18a1 1 0 0 0 1-1v-1a1 1 0 0 1-1 1Z"/><path stroke="#191919" stroke-linecap="round" stroke-linejoin="round" d="M3 15.5h18a1 1 0 0 1 1 1v2a1 1 0 0 1-1 1H3a1 1 0 0 1-1-1v-2a1 1 0 0 1 1-1Z"/><path stroke="#191919" stroke-linecap="round" d="M6.5 17.5h6"/><path fill="#ff808c" d="M15.5 3.2a.5.5 0 0 1 .76-.43l1.4.82a.5.5 0 0 1 .24.5l-.5 4.16-2-1.16.1-3.89Z"/><path fill="#ffbfc5" d="M16.26 2.77a.5.5 0 0 0-.76.43l-.1 3.89 1 .58 1-1.74-.5-2.66a.5.5 0 0 0-.64-.5Z"/><path stroke="#191919" stroke-linecap="round" stroke-linejoin="round" d="M15.5 3.2a.5.5 0 0 1 .76-.43l1.4.82a.5.5 0 0 1 .24.5l-.5 4.16-2-1.16.1-3.89Z"/></svg>
